<svg xmlns="http://www.w3.org/2000/svg" width="152" height="24" viewBox="0 0 162 36">
    <defs>
        <linearGradient id="6hjk01773a" x1="0%" x2="100%" y1="50%" y2="50%">
            <stop offset="0%" stop-color="#437AFF"/>
            <stop offset="30%" stop-color="#4371FF"/>
            <stop offset="80%" stop-color="#4357FF"/>
            <stop offset="88%" stop-color="#4353FF"/>
        </linearGradient>
    </defs>
    <g fill="none">
        <g fill="#101017">
            <path d="M11.464 18.079L10.986 18.079 3.879 6.757 3.879 21.323.467 21.323.467 1.015 4.346 1.015 11.225 11.976 18.084 1.015 21.983 1.015 21.983 21.323 18.546 21.323 18.546 6.757zM37.133 21.323V19.8c-1.487 1.302-3.418 1.982-5.392 1.899-2.035.017-3.984-.821-5.371-2.31-1.487-1.45-2.31-3.448-2.275-5.524-.03-2.067.787-4.057 2.26-5.508 1.398-1.48 3.35-2.309 5.386-2.29 2.224 0 4.02.633 5.392 1.899V6.443h3.437v14.88h-3.437zm-1.407-4.143c.932-.832 1.448-2.035 1.407-3.284.035-1.253-.478-2.459-1.407-3.3-.938-.854-2.169-1.314-3.437-1.285-1.238-.034-2.44.418-3.35 1.26-.916.849-1.42 2.051-1.387 3.3-.039 1.244.468 2.444 1.386 3.284.905.867 2.12 1.336 3.372 1.3 1.264.028 2.49-.439 3.416-1.3v.025zM57.958 15.342h-11.84c.6 2.072 2.087 3.113 4.448 3.113 1.285.01 2.555-.278 3.711-.838l1.935 2.736c-1.762.883-3.706 1.34-5.676 1.336-2.095.073-4.129-.712-5.63-2.173-1.5-1.488-2.306-3.536-2.224-5.646-.052-2.067.725-4.068 2.157-5.56 1.425-1.498 3.422-2.318 5.489-2.253 2.005-.027 3.939.747 5.37 2.152 1.524 1.437 2.26 3.422 2.26 5.97v1.163zm-11.804-2.94h8.332c-.256-.94-.83-1.764-1.625-2.33-1.15-.81-2.621-1.016-3.951-.554-1.33.462-2.355 1.536-2.756 2.885zM61.03 17.155c.314.45.761.792 1.28.975.473.211.973.356 1.487.431l.67.03c2.066 0 3.112-.461 3.112-1.365.035-1.401-3.097-1.61-5.585-2.498-1.837-.54-3.085-2.243-3.046-4.158.023-1.216.58-2.36 1.523-3.127 1.016-.924 2.452-1.386 4.31-1.386 2.209 0 3.935.751 5.184 2.239l-2.107 2.03c-.87-.74-1.97-1.151-3.112-1.162-1.59 0-2.376.477-2.376 1.437.015.557.357 1.053.873 1.264.681.341 1.405.589 2.153.736.857.186 1.704.415 2.538.685.825.268 1.564.752 2.138 1.402.605.727.917 1.654.873 2.599 0 1.08-.564 2.083-1.69 3.01-1.315.983-2.932 1.473-4.57 1.387-1.324.04-2.637-.258-3.813-.869-.934-.48-1.728-1.193-2.305-2.071l2.463-1.59zM71.01 9.646V6.448h3.2V1.3c.461-.117 1.06-.274 1.797-.508.736-.234 1.264-.376 1.64-.462v6.092h4.061v3.224h-4.062v6.006c0 1.726.889 2.6 2.686 2.6.579 0 1.016 0 1.335-.036v2.975c-.82.086-1.643.13-2.467.132-.305 0-.579 0-.838-.035-.423-.064-.837-.178-1.233-.34-.524-.175-1.002-.463-1.402-.843-.751-.716-1.523-2.361-1.523-4.499v-5.96h-3.193zM83.83 21.323V6.448h3.437v2.38C88.417 7.14 90.36 6.168 92.4 6.26c.508 0 .858 0 1.112.035v3.3l-.838-.101c-1.573-.069-3.074.665-3.985 1.95-.903 1.164-1.407 2.588-1.437 4.06v5.82H83.83zM102.26 6.057c2.145-.049 4.22.771 5.752 2.274 1.53 1.426 2.386 3.432 2.355 5.524.031 2.097-.824 4.11-2.355 5.544-3.231 3.053-8.284 3.053-11.515 0-1.545-1.426-2.409-3.442-2.376-5.544-.033-2.096.832-4.106 2.376-5.524 1.535-1.505 3.613-2.326 5.762-2.274zm0 12.398c1.245.03 2.45-.444 3.34-1.315.902-.845 1.4-2.034 1.37-3.27.031-1.238-.468-2.431-1.37-3.28-1.875-1.74-4.775-1.74-6.65 0-.903.849-1.402 2.042-1.372 3.28-.03 1.236.47 2.425 1.371 3.27.883.863 2.075 1.337 3.31 1.315z" transform="translate(51 7)"/>
        </g>
        <path fill="#232FAD" d="M23.976 9.066L35.964 9.066 35.964 35.964 23.976 35.964 23.976 11.988 23.976 11.988z"/>
        <path fill="url(#6hjk01773a)" d="M35.964 11.988L35.964 0 0 0 0 23.976 0 35.964 11.988 35.964 27.57 35.964 27.57 23.976 11.988 23.976 11.988 11.988z"/>
        <path fill="#000" d="M11.988 23.976L23.976 23.976 23.976 35.964" opacity=".1"/>
        <path fill="#232FAD" d="M23.976 23.976L35.964 23.976 35.964 35.964 23.976 35.964 23.976 25.278 23.976 25.278z"/>
    </g>
</svg>